<?xml version="1.0" encoding="UTF-8" standalone="no"?>
<!-- Created with Inkscape (http://www.inkscape.org/) -->

<svg
   width="100"
   height="100"
   viewBox="0 0 26.458333 26.458334"
   version="1.1"
   id="svg2518"
   sodipodi:docname="spider.svg"
   inkscape:export-filename="D:\CloudRepos\Git\rui\src\WinUi\Assets\spider_400.png"
   inkscape:export-xdpi="384"
   inkscape:export-ydpi="384"
   inkscape:version="1.1.2 (b8e25be833, 2022-02-05)"
   xmlns:inkscape="http://www.inkscape.org/namespaces/inkscape"
   xmlns:sodipodi="http://sodipodi.sourceforge.net/DTD/sodipodi-0.dtd"
   xmlns="http://www.w3.org/2000/svg"
   xmlns:svg="http://www.w3.org/2000/svg">
  <sodipodi:namedview
     id="namedview2520"
     pagecolor="#ffffff"
     bordercolor="#666666"
     borderopacity="1.0"
     inkscape:pageshadow="2"
     inkscape:pageopacity="0.0"
     inkscape:pagecheckerboard="0"
     inkscape:document-units="px"
     showgrid="false"
     units="px"
     inkscape:zoom="6.2217172"
     inkscape:cx="16.635279"
     inkscape:cy="56.576021"
     inkscape:window-width="2560"
     inkscape:window-height="1369"
     inkscape:window-x="-8"
     inkscape:window-y="-8"
     inkscape:window-maximized="1"
     inkscape:current-layer="layer1" />
  <defs
     id="defs2515" />
  <g
     inkscape:label="Layer 1"
     inkscape:groupmode="layer"
     id="layer1">
    <ellipse
       style="fill:#7500ff;stroke:#7500ff;stroke-width:0.132292;fill-opacity:1;stroke-opacity:1"
       id="path2731"
       cx="13.438144"
       cy="12.778996"
       rx="2.7641752"
       ry="6.1449742" />
    <path
       style="fill:#800080;fill-opacity:1;stroke:#b700ff;stroke-width:0.132292;stroke-opacity:1"
       id="path3565"
       d="m 15.498372,8.8435044 c 0.02992,-0.048382 0.053,-0.1017334 0.08976,-0.1451451 0.136118,-0.1607452 0.311356,-0.2893367 0.495909,-0.3882792 0.0446,-0.023913 -0.164113,0.1099984 -0.114578,0.099621 0.143012,-0.029959 0.26946,-0.1137057 0.407701,-0.1610265 0.119674,-0.040965 0.24339,-0.069002 0.365084,-0.1035029 0.09919,-0.00498 0.199554,-0.030958 0.297572,-0.014952 0.184093,0.030061 0.302373,0.1599711 0.422409,0.2860691 0.11674,0.1226357 0.214847,0.3107045 0.410114,0.3377777 0.101745,0.014108 0.202374,-0.035344 0.303561,-0.053017 0.286245,-0.183529 0.588841,-0.3437617 0.858734,-0.5505873 0.154525,-0.1184161 0.671581,-0.7407503 0.777479,-0.8682964 0.320165,-0.3856138 0.624399,-0.7834989 0.934947,-1.1767557 0.05271,-0.063639 0.102903,-0.1294466 0.158126,-0.1909157 0.162938,-0.1813655 0.500097,-0.3214907 -0.44366,0.2238026 0,0 0.525939,-0.3648657 0.525939,-0.3648657 v 0 c -0.600149,0.3128645 -0.494061,0.1755148 -0.78407,0.5653725 -0.420506,0.5579962 -0.839828,1.120826 -1.31636,1.6332104 -0.126768,0.1363059 -0.295311,0.2373823 -0.395435,0.3943049 -0.02985,0.046788 0.109067,-0.020638 0.163601,-0.030954 -0.09124,0.028242 -0.17829,0.088637 -0.273721,0.084725 -0.194127,-0.00796 -0.295665,-0.2042515 -0.40365,-0.3207496 -0.129262,-0.1394529 -0.252366,-0.2853024 -0.452767,-0.3247279 -0.102839,-0.020233 -0.20951,0.0068 -0.314266,0.010197 -0.278567,0.077008 -0.521365,0.1313606 -0.784703,0.2602291 -0.303948,0.1487411 -0.600931,0.3118342 -0.893757,0.481425 -0.249602,0.1445575 -0.472922,0.3240077 -0.606265,0.583234 0,0 0.5723,-0.2661923 0.5723,-0.2661923 z" />
    <path
       style="fill:#800080;fill-opacity:1;stroke:#b700ff;stroke-width:0.132292;stroke-opacity:1"
       id="path3567"
       d="m 15.621985,11.237808 c 0.45052,-0.111893 0.893898,-0.250462 1.344212,-0.363377 0.137308,-0.03443 0.274055,-0.07245 0.41352,-0.0967 0.11329,-0.0197 0.228801,-0.02328 0.343202,-0.03492 0.341888,0.02084 0.419797,0.12238 0.664281,0.329435 0.07208,0.06105 0.139614,0.12857 0.218751,0.180145 0.266382,0.173606 0.28245,0.139054 0.601756,0.184806 0.13448,-0.01726 0.270781,-0.02377 0.403439,-0.05179 0.148772,-0.03142 0.294284,-0.07755 0.438415,-0.125989 0.657356,-0.220928 1.239863,-0.576927 1.836922,-0.922507 0,0 -0.569003,0.219075 -0.569003,0.219075 v 0 c 0.101702,-0.05717 0.286492,-0.05634 0.305107,-0.171512 0.01847,-0.114296 -0.20134,0.114526 -0.304418,0.167249 -0.509192,0.260447 -1.048101,0.482574 -1.621896,0.539698 -0.298385,-0.0315 -0.326654,0.0022 -0.577536,-0.159844 -0.07854,-0.05072 -0.144586,-0.118604 -0.215147,-0.179939 -0.26284,-0.228472 -0.328754,-0.333578 -0.702405,-0.363635 -0.118679,0.01163 -0.238519,0.01465 -0.356035,0.03489 -0.141222,0.02432 -0.279386,0.06398 -0.418466,0.0985 -0.433457,0.107602 -0.862083,0.234479 -1.297584,0.333839 0,0 -0.507115,0.382562 -0.507115,0.382562 z" />
    <path
       style="fill:#800080;fill-opacity:1;stroke:#b700ff;stroke-width:0.132292;stroke-opacity:1"
       id="path3569"
       d="m 15.267601,14.093058 c 0.624168,-0.0069 1.253133,-0.04731 1.875185,0.0262 0.133212,0.01574 0.264438,0.04523 0.396657,0.06785 0.291308,0.07543 0.549967,0.193074 0.723224,0.44979 0.101923,0.151021 0.183059,0.393935 0.258204,0.552791 0.0551,0.116472 0.117849,0.229167 0.176774,0.34375 0.08875,0.116182 0.164471,0.243598 0.266261,0.348547 0.381099,0.392926 0.873754,0.607452 1.41055,0.686644 0.408445,0.06026 0.640682,0.02299 1.041538,-0.0059 0.133344,-0.02259 0.266688,-0.04519 0.400032,-0.06779 0,0 0.469129,-0.353937 0.469129,-0.353937 v 0 c -0.135199,0.02635 -0.270397,0.0527 -0.405596,0.07905 -0.399122,0.03717 -0.630988,0.08008 -1.038486,0.02587 -0.523951,-0.06969 -1.006288,-0.276227 -1.374605,-0.662352 -0.09831,-0.103064 -0.17019,-0.228438 -0.255285,-0.342657 -0.05624,-0.114474 -0.116303,-0.227152 -0.168733,-0.343422 -0.08021,-0.177885 -0.148917,-0.408564 -0.260234,-0.574321 -0.181922,-0.270893 -0.454011,-0.39613 -0.761367,-0.473634 -0.135392,-0.0226 -0.269859,-0.05169 -0.406176,-0.06779 -0.607986,-0.07181 -1.221788,-0.0356 -1.831948,-0.06293 0,0 -0.515124,0.37426 -0.515124,0.37426 z" />
    <path
       style="fill:#800080;fill-opacity:1;stroke:#b700ff;stroke-width:0.132292;stroke-opacity:1"
       id="path3571"
       d="m 14.463139,16.859534 c 0.31484,0.02143 0.634053,0.0451 0.939793,0.129163 0.08568,0.02356 0.172349,0.04774 0.251753,0.08762 0.06831,0.03431 0.124675,0.08849 0.187012,0.132728 0.03933,0.06405 0.08908,0.122779 0.118003,0.192159 0.03554,0.08525 0.05351,0.176977 0.07347,0.267152 0.06516,0.294405 0.04757,0.391937 0.147207,0.687104 0.124273,0.368151 0.170868,0.387044 0.392275,0.708521 0.09977,0.100704 0.192034,0.20945 0.299317,0.302113 0.434051,0.374902 0.97609,0.597913 1.507987,0.79245 0.06517,0.02352 0.130343,0.04705 0.195514,0.07057 0,0 0.508977,-0.344516 0.508977,-0.344516 v 0 c -0.06697,-0.02215 -0.133939,-0.0443 -0.200909,-0.06646 -0.532136,-0.180824 -1.077462,-0.388848 -1.51162,-0.758211 -0.10528,-0.08957 -0.195232,-0.195726 -0.292847,-0.293588 -0.213815,-0.313161 -0.26043,-0.332376 -0.376785,-0.692477 -0.09633,-0.298127 -0.07504,-0.395288 -0.138143,-0.693994 -0.02036,-0.09638 -0.03849,-0.194539 -0.07626,-0.285517 -0.03193,-0.07691 -0.08713,-0.141941 -0.130696,-0.212911 -0.06671,-0.04825 -0.126967,-0.106977 -0.200117,-0.14475 -0.0813,-0.04198 -0.170611,-0.06695 -0.258583,-0.09211 -0.298522,-0.08539 -0.610311,-0.114955 -0.917102,-0.153734 0,0 -0.518241,0.368689 -0.518241,0.368689 z" />
    <path
       style="fill:#800080;fill-opacity:1;stroke:#b700ff;stroke-width:0.132292;stroke-opacity:1"
       id="path3565-1"
       d="m 11.136148,9.0721989 c -0.02992,-0.04838 -0.053,-0.101733 -0.08976,-0.145145 -0.136118,-0.160745 -0.311356,-0.289337 -0.495909,-0.388279 -0.0446,-0.02391 0.164113,0.109998 0.114578,0.09962 -0.143012,-0.02996 -0.26946,-0.113706 -0.407701,-0.161027 -0.119674,-0.04096 -0.24339,-0.069 -0.365084,-0.103502 -0.09919,-0.005 -0.199554,-0.03096 -0.297572,-0.01495 -0.184093,0.03006 -0.302373,0.159971 -0.422409,0.286069 -0.11674,0.122635 -0.214847,0.310704 -0.410114,0.337777 -0.101745,0.01411 -0.202374,-0.03534 -0.303561,-0.05302 C 8.172371,8.7462129 7.869775,8.5859809 7.599882,8.3791549 7.445357,8.2607389 6.928301,7.6384049 6.822403,7.5108589 6.502238,7.1252449 6.198004,6.7273599 5.887456,6.3341029 5.834746,6.2704629 5.784553,6.2046559 5.72933,6.1431869 c -0.162938,-0.181365 -0.500097,-0.32149 0.44366,0.223803 0,0 -0.525939,-0.364866 -0.525939,-0.364866 v 0 c 0.600149,0.312865 0.494061,0.175515 0.78407,0.565373 0.420506,0.557996 0.839828,1.120826 1.31636,1.63321 0.126768,0.136306 0.295311,0.237382 0.395435,0.394305 0.02985,0.04679 -0.109067,-0.02064 -0.163601,-0.03095 0.09124,0.02824 0.17829,0.08864 0.273721,0.08473 0.194127,-0.008 0.295665,-0.204252 0.40365,-0.32075 0.129262,-0.139453 0.252366,-0.285302 0.452767,-0.324728 0.102839,-0.02023 0.20951,0.0068 0.314266,0.0102 0.278567,0.07701 0.521365,0.131361 0.784703,0.26023 0.303948,0.148741 0.600931,0.311834 0.893757,0.481425 0.249602,0.144557 0.472922,0.324007 0.606265,0.583234 0,0 -0.5723,-0.266193 -0.5723,-0.266193 z" />
    <path
       style="fill:#800080;fill-opacity:1;stroke:#b700ff;stroke-width:0.132292;stroke-opacity:1"
       id="path3567-1"
       d="m 11.012535,11.466503 c -0.45052,-0.111893 -0.893898,-0.250462 -1.344212,-0.363377 -0.137308,-0.03443 -0.274055,-0.07245 -0.41352,-0.0967 -0.11329,-0.0197 -0.228801,-0.02328 -0.343202,-0.03492 -0.341888,0.02084 -0.419797,0.12238 -0.664281,0.329435 -0.07208,0.06105 -0.139614,0.12857 -0.218751,0.180145 -0.266382,0.173606 -0.28245,0.139054 -0.601756,0.184806 -0.13448,-0.01726 -0.270781,-0.02377 -0.403439,-0.05179 C 6.874602,11.582682 6.72909,11.536552 6.584959,11.488113 5.927603,11.267185 5.345096,10.911186 4.748037,10.565606 c 0,0 0.569003,0.219075 0.569003,0.219075 v 0 c -0.101702,-0.05717 -0.286492,-0.05634 -0.305107,-0.171512 -0.01847,-0.114296 0.20134,0.114526 0.304418,0.167249 0.509192,0.260447 1.048101,0.482574 1.621896,0.539698 0.298385,-0.0315 0.326654,0.0022 0.577536,-0.159844 0.07854,-0.05072 0.144586,-0.118604 0.215147,-0.179939 0.26284,-0.228472 0.328754,-0.333578 0.702405,-0.363635 0.118679,0.01163 0.238519,0.01465 0.356035,0.03489 0.141222,0.02432 0.279386,0.06398 0.418466,0.0985 0.433457,0.107602 0.862083,0.234479 1.297584,0.333839 0,0 0.507115,0.382562 0.507115,0.382562 z" />
    <path
       style="fill:#800080;fill-opacity:1;stroke:#b700ff;stroke-width:0.132292;stroke-opacity:1"
       id="path3569-2"
       d="m 11.366919,14.321753 c -0.624168,-0.0069 -1.253133,-0.04731 -1.875185,0.0262 -0.133212,0.01574 -0.264438,0.04523 -0.396657,0.06785 -0.291308,0.07543 -0.549967,0.193074 -0.723224,0.44979 -0.101923,0.151021 -0.183059,0.393935 -0.258204,0.552791 -0.0551,0.116472 -0.117849,0.229167 -0.176774,0.34375 -0.08875,0.116182 -0.164471,0.243598 -0.266261,0.348547 -0.381099,0.392926 -0.873754,0.607452 -1.41055,0.686644 -0.408445,0.06026 -0.640682,0.02299 -1.041538,-0.0059 -0.133344,-0.02259 -0.266688,-0.04519 -0.400032,-0.06779 0,0 -0.469129,-0.353937 -0.469129,-0.353937 v 0 c 0.135199,0.02635 0.270397,0.0527 0.405596,0.07905 0.399122,0.03717 0.630988,0.08008 1.038486,0.02587 0.523951,-0.06969 1.006288,-0.276227 1.374605,-0.662352 0.09831,-0.103064 0.17019,-0.228438 0.255285,-0.342657 0.05624,-0.114474 0.116303,-0.227152 0.168733,-0.343422 0.08021,-0.177885 0.148917,-0.408564 0.260234,-0.574321 0.181922,-0.270893 0.454011,-0.39613 0.761367,-0.473634 0.135392,-0.0226 0.269859,-0.05169 0.406176,-0.06779 0.607986,-0.07181 1.221788,-0.0356 1.831948,-0.06293 0,0 0.515124,0.37426 0.515124,0.37426 z" />
    <path
       style="fill:#800080;fill-opacity:1;stroke:#b700ff;stroke-width:0.132292;stroke-opacity:1"
       id="path3571-2"
       d="m 12.171381,17.088229 c -0.31484,0.02143 -0.634053,0.0451 -0.939793,0.129163 -0.08568,0.02356 -0.172349,0.04774 -0.251753,0.08762 -0.06831,0.03431 -0.124675,0.08849 -0.187012,0.132728 -0.03933,0.06405 -0.08908,0.122779 -0.118003,0.192159 -0.03554,0.08525 -0.05351,0.176977 -0.07347,0.267152 -0.06516,0.294405 -0.04757,0.391937 -0.147207,0.687104 -0.124273,0.368151 -0.170868,0.387044 -0.392275,0.708521 -0.09977,0.100704 -0.192034,0.20945 -0.299317,0.302113 -0.434051,0.374902 -0.97609,0.597913 -1.507987,0.79245 -0.06517,0.02352 -0.130343,0.04705 -0.195514,0.07057 0,0 -0.508977,-0.344516 -0.508977,-0.344516 v 0 c 0.06697,-0.02215 0.133939,-0.0443 0.200909,-0.06646 0.532136,-0.180824 1.077462,-0.388848 1.51162,-0.758211 0.10528,-0.08957 0.195232,-0.195726 0.292847,-0.293588 0.213815,-0.313161 0.26043,-0.332376 0.376785,-0.692477 0.09633,-0.298127 0.07504,-0.395288 0.138143,-0.693994 0.02036,-0.09638 0.03849,-0.194539 0.07626,-0.285517 0.03193,-0.07691 0.08713,-0.141941 0.130696,-0.212911 0.06671,-0.04825 0.126967,-0.106977 0.200117,-0.14475 0.0813,-0.04198 0.170611,-0.06695 0.258583,-0.09211 0.298522,-0.08539 0.610311,-0.114955 0.917102,-0.153734 0,0 0.518241,0.368689 0.518241,0.368689 z" />
    <ellipse
       style="fill:#800080;fill-opacity:1;stroke:#b70010;stroke-width:0.0743384;stroke-opacity:1"
       id="path3822-5"
       cx="13.799614"
       cy="7.1018047"
       rx="0.15655413"
       ry="0.17781702" />
    <ellipse
       style="fill:#800080;fill-opacity:1;stroke:#b70010;stroke-width:0.0743384;stroke-opacity:1"
       id="path3822-5-1-2"
       cx="14.331185"
       cy="7.5695877"
       rx="0.15655413"
       ry="0.17781702" />
    <ellipse
       style="fill:#800080;fill-opacity:1;stroke:#b70010;stroke-width:0.0743384;stroke-opacity:1"
       id="path3822-5-1-4"
       cx="14.79897"
       cy="8.0373716"
       rx="0.15655413"
       ry="0.17781702" />
    <ellipse
       style="fill:#800080;fill-opacity:1;stroke:#b70010;stroke-width:0.0743384;stroke-opacity:1"
       id="path3822-5-1-79"
       cx="13.778351"
       cy="7.8247418"
       rx="0.15655413"
       ry="0.17781702" />
    <ellipse
       style="fill:#800080;fill-opacity:1;stroke:#b70010;stroke-width:0.0743384;stroke-opacity:1"
       id="path3822-5-7"
       cx="-13.204253"
       cy="7.0592785"
       rx="0.15655413"
       ry="0.17781702"
       transform="scale(-1,1)" />
    <ellipse
       style="fill:#800080;fill-opacity:1;stroke:#b70010;stroke-width:0.0743384;stroke-opacity:1"
       id="path3822-5-1-2-8"
       cx="-12.672681"
       cy="7.5270615"
       rx="0.15655413"
       ry="0.17781702"
       transform="scale(-1,1)" />
    <ellipse
       style="fill:#800080;fill-opacity:1;stroke:#b70010;stroke-width:0.0743384;stroke-opacity:1"
       id="path3822-5-1-4-4"
       cx="-12.204896"
       cy="7.9948454"
       rx="0.15655413"
       ry="0.17781702"
       transform="scale(-1,1)" />
    <ellipse
       style="fill:#800080;fill-opacity:1;stroke:#b70010;stroke-width:0.0743384;stroke-opacity:1"
       id="path3822-5-1-79-9"
       cx="-13.225516"
       cy="7.7822161"
       rx="0.15655413"
       ry="0.17781702"
       transform="scale(-1,1)" />
  </g>
</svg>
